<svg width="57" height="34" viewBox="0 0 57 34" fill="none" xmlns="http://www.w3.org/2000/svg">
<path fill-rule="evenodd" clip-rule="evenodd" d="M28.7978 29.5998C30.5493 28.002 31.9475 26.0558 32.9027 23.886C33.8579 21.7161 34.3492 19.3706 34.3449 16.9998C34.3492 14.6291 33.858 12.2835 32.9028 10.1137C31.9475 7.94389 30.5493 5.99766 28.7978 4.39987C25.8029 1.66601 21.8299 0 17.4701 0C8.15092 0 0.595703 7.61099 0.595703 16.9998C0.595703 26.3884 8.15092 33.9997 17.4701 33.9997C21.8299 33.9997 25.8032 32.3337 28.7978 29.5998Z" fill="#3A9BD9"/>
<path fill-rule="evenodd" clip-rule="evenodd" d="M40.1258 0C35.766 0 31.7924 1.66601 28.7981 4.39988C28.1874 4.95786 27.618 5.55939 27.0944 6.19974H30.5006C30.9682 6.7713 31.3982 7.37262 31.7879 7.99991H25.8079C25.448 8.57999 25.1231 9.18112 24.835 9.80008H32.7593C33.032 10.3859 33.2711 10.9868 33.4753 11.5999H24.1205C23.9244 12.1905 23.7608 12.7913 23.6306 13.3998H33.9655C34.2185 14.5831 34.3459 15.7898 34.3454 16.9998C34.3454 18.8871 34.0391 20.703 33.4756 22.3995H24.1205C24.324 23.0127 24.5626 23.6138 24.835 24.1996H32.7593C32.4718 24.8186 32.1473 25.4198 31.7876 25.9998H25.8079C26.1972 26.627 26.6269 27.2284 27.0941 27.8H30.5006C29.9776 28.4406 29.4086 29.0423 28.7981 29.6001C31.7924 32.334 35.766 34 40.1258 34C49.4447 34 57.0002 26.3887 57.0002 17.0002C57.0002 7.61099 49.4447 0 40.1258 0Z" fill="#CC2131"/>
<path fill-rule="evenodd" clip-rule="evenodd" d="M54.7529 26.4761C54.7529 26.1728 54.9968 25.9268 55.2983 25.9268C55.5992 25.9268 55.8431 26.1728 55.8431 26.4761C55.8431 26.7788 55.5992 27.0248 55.2983 27.0248C55.1532 27.0243 55.0143 26.9662 54.912 26.8633C54.8098 26.7604 54.7525 26.6211 54.7529 26.4761V26.4761ZM55.298 26.8927C55.5265 26.8927 55.712 26.7067 55.712 26.4758C55.712 26.2448 55.5265 26.0582 55.298 26.0582C55.0689 26.0582 54.8835 26.2448 54.8835 26.4758C54.8835 26.7067 55.0692 26.8927 55.298 26.8927ZM55.2245 26.7166H55.1126V26.2337H55.3152C55.3571 26.2337 55.3999 26.2349 55.437 26.2584C55.4563 26.272 55.4719 26.2901 55.4826 26.3111C55.4932 26.3321 55.4986 26.3554 55.4982 26.379C55.4982 26.4333 55.4665 26.4845 55.4153 26.5038L55.5036 26.7163H55.3794L55.3065 26.5255H55.2248V26.7166V26.4435H55.2866C55.3089 26.4435 55.3342 26.4447 55.3544 26.4336C55.3634 26.4274 55.3706 26.4191 55.3756 26.4094C55.3805 26.3997 55.383 26.389 55.3827 26.3781C55.3824 26.3684 55.3797 26.3589 55.375 26.3504C55.3703 26.3419 55.3636 26.3347 55.3556 26.3292C55.3363 26.3175 55.305 26.3205 55.2838 26.3205H55.2251V26.7166H55.2245Z" fill="#CC2131"/>
<path fill-rule="evenodd" clip-rule="evenodd" d="M51.1848 20.6843C51.1848 20.381 51.4287 20.135 51.7296 20.135C52.0305 20.135 52.2744 20.381 52.2744 20.6843C52.2744 20.9876 52.0305 21.233 51.7296 21.233C51.4287 21.233 51.1848 20.9873 51.1848 20.6843ZM51.7293 21.1009C51.9578 21.1009 52.1432 20.9143 52.1432 20.684C52.1432 20.4531 51.9578 20.2664 51.7293 20.2664C51.5001 20.2664 51.3153 20.4531 51.3153 20.684C51.3153 20.9143 51.5004 21.1009 51.7293 21.1009ZM51.6557 20.9249H51.5439V20.4425H51.7465C51.7884 20.4425 51.8318 20.4431 51.8683 20.4672C51.8875 20.4807 51.9031 20.4987 51.9138 20.5196C51.9245 20.5405 51.9299 20.5637 51.9295 20.5872C51.9295 20.6421 51.8981 20.6927 51.8465 20.712L51.9349 20.9246H51.8113L51.7377 20.7337H51.656V20.9249V20.6517H51.7178C51.7407 20.6517 51.7661 20.6535 51.7856 20.6424C51.7945 20.6361 51.8017 20.6278 51.8067 20.6181C51.8116 20.6085 51.8141 20.5978 51.814 20.5869C51.8138 20.5771 51.8112 20.5675 51.8065 20.5589C51.8018 20.5503 51.795 20.5429 51.7869 20.5375C51.7676 20.5263 51.7362 20.5287 51.7157 20.5287H51.6563V20.9249H51.6557ZM15.3623 21.233H13.2622L14.5103 14.6076L11.6366 21.233H9.72152L9.37149 14.6455L8.11943 21.233H6.21313L7.84206 12.6144H11.1192L11.2926 17.9501L13.6031 12.6144H17.0181L15.3623 21.233V21.233ZM38.8332 21.1471C38.2586 21.306 37.8094 21.3744 37.324 21.3744C36.2495 21.3744 35.6628 20.8314 35.6628 19.8353C35.6628 19.6381 35.6845 19.4283 35.7246 19.2064L35.8525 18.5211L35.9507 17.9664L36.9242 12.6141H39.0129L38.7102 14.2238H39.782L39.4941 15.9278H38.4178L37.8643 18.8522C37.8437 18.9477 37.8317 19.0449 37.8284 19.1425C37.8284 19.5046 38.0458 19.662 38.545 19.662C38.7841 19.662 38.9695 19.6402 39.1115 19.5965L38.8332 21.1471ZM44.9673 14.2813C44.7912 14.2114 44.7499 14.2114 44.7294 14.2057C44.6181 14.181 44.5587 14.1665 44.5485 14.1647C44.4787 14.1525 44.408 14.1466 44.3372 14.1472C43.6477 14.1472 43.1505 14.4565 42.5077 15.2853L42.6932 14.2232H40.7911L39.511 21.2327H41.6126C42.3645 16.9459 42.6865 16.1952 43.6947 16.1952C43.7707 16.1952 43.8584 16.2012 43.9603 16.213L44.2057 16.2633L44.9673 14.2813V14.2813ZM30.5077 16.4382C30.5077 17.3236 31.0031 17.9335 32.1258 18.3918C32.9862 18.7439 33.1192 18.847 33.1192 19.1654C33.1192 19.6017 32.7399 19.7985 31.8997 19.7985C31.2654 19.7985 30.676 19.7126 29.9955 19.5212L29.704 21.138L29.798 21.154L30.1872 21.2258C30.3127 21.2475 30.4975 21.2683 30.7426 21.287C31.2479 21.3265 31.6389 21.3451 31.9145 21.3451C34.1563 21.3451 35.1919 20.605 35.1919 19.0062C35.1919 18.0442 34.759 17.4801 33.6944 17.0553C32.8035 16.7005 32.7004 16.6218 32.7004 16.2947C32.7004 15.9169 33.0538 15.7227 33.7402 15.7227C34.1578 15.7227 34.727 15.7622 35.267 15.828L35.5697 14.2054C35.0198 14.13 34.1852 14.0682 33.7001 14.0682C31.3232 14.0685 30.5005 15.1454 30.5077 16.4382V16.4382ZM22.1897 21.233H20.4444L20.4851 20.5064C19.9536 21.0817 19.2451 21.3542 18.2822 21.3542C17.1441 21.3542 16.3629 20.5733 16.3629 19.4398C16.3629 17.7321 17.7199 16.7369 20.0522 16.7369C20.2913 16.7369 20.5949 16.7559 20.9078 16.7909C20.9729 16.5606 20.9907 16.4611 20.9907 16.3357C20.9907 15.8717 20.6244 15.698 19.6437 15.698C19.044 15.698 18.3663 15.774 17.8984 15.8934L17.6075 15.9679L17.419 16.0131L17.7103 14.4372C18.7573 14.1671 19.4483 14.0649 20.2247 14.0649C22.0297 14.0649 22.9836 14.777 22.9836 16.121C22.9836 16.4668 22.9519 16.7294 22.8129 17.5097L22.374 19.9963L22.3001 20.4425L22.2464 20.7989L22.2105 21.0428L22.1897 21.233V21.233ZM20.6576 18.1102C20.5019 18.0908 20.3451 18.0812 20.1882 18.0813C18.9979 18.0813 18.3949 18.4397 18.3949 19.1476C18.3949 19.5839 18.6892 19.8624 19.1484 19.8624C20.0046 19.8627 20.6214 19.1467 20.6576 18.1102ZM29.0796 21.0817C28.3782 21.272 27.6544 21.3676 26.9276 21.366C24.5796 21.3641 23.3559 20.2872 23.3559 18.2257C23.3559 15.8195 24.9128 14.048 27.0262 14.048C28.7552 14.048 29.8592 15.0402 29.8592 16.5959C29.8592 17.1123 29.7839 17.6158 29.6015 18.3264H25.4256C25.4128 18.3991 25.4061 18.4727 25.4054 18.5465C25.4054 19.359 26.028 19.7735 27.2478 19.7735C27.9979 19.7735 28.6759 19.6363 29.4287 19.33L29.0796 21.0817ZM27.9611 16.9109C27.9725 16.765 27.9786 16.6456 27.9786 16.5533C27.9786 15.9841 27.6104 15.6501 26.9852 15.6501C26.3171 15.6501 25.8392 16.0981 25.6454 16.9067L27.9611 16.9109ZM51.4956 18.055C51.1812 20.3867 49.5649 21.4208 47.4162 21.4208C45.0402 21.4208 44.0806 19.9689 44.0806 18.1898C44.0806 15.7056 45.7059 14.0224 48.2161 14.0224C50.3949 14.0224 51.5517 15.4065 51.5517 17.1859C51.5517 17.6188 51.5511 17.6474 51.4956 18.055ZM49.3328 17.1581C49.3328 16.4249 49.0373 15.7327 48.1763 15.7327C47.1045 15.7327 46.4403 17.0089 46.4403 18.1355C46.4403 19.0858 46.8956 19.7244 47.6463 19.7108C48.1015 19.7108 49.0723 19.0861 49.2643 17.995C49.3092 17.7406 49.3328 17.4614 49.3328 17.1581V17.1581Z" fill="white"/>
</svg>
